HIERARCHY
ROOT Hips
{
 OFFSET 0.000000 0.000000 0.000000
 CHANNELS 6 Xposition Yposition Zposition Yrotation Xrotation Zrotation
 JOINT Chest
 {
  OFFSET 0.000000 9.581000 -0.001100
  CHANNELS 3 Yrotation Xrotation Zrotation
  JOINT Chest2
  {
   OFFSET 0.000000 9.561100 0.002200
   CHANNELS 3 Yrotation Xrotation Zrotation
   JOINT Chest3
   {
    OFFSET 0.000000 9.521100 0.000000
    CHANNELS 3 Yrotation Xrotation Zrotation
    JOINT Chest4
    {
     OFFSET 0.000000 9.511400 0.000000
     CHANNELS 3 Yrotation Xrotation Zrotation
     JOINT Neck
     {
      OFFSET 0.000000 14.375100 0.000000
      CHANNELS 3 Yrotation Xrotation Zrotation
      JOINT Head
      {
       OFFSET 0.000000 8.901200 0.004600
       CHANNELS 3 Yrotation Xrotation Zrotation
       End Site
       {
        OFFSET 0.000000 16.962200 0.002400
       }
      }
     }
     JOINT RightCollar
     {
      OFFSET -2.920100 9.518800 0.000000
      CHANNELS 3 Yrotation Xrotation Zrotation
      JOINT RightShoulder
      {
       OFFSET -13.664500 0.000000 0.000000
       CHANNELS 3 Yrotation Xrotation Zrotation
       JOINT RightElbow
       {
        OFFSET 0.000000 -29.999200 0.000000
        CHANNELS 3 Yrotation Xrotation Zrotation
        JOINT RightWrist
        {
         OFFSET 0.000000 -24.253600 0.000000
         CHANNELS 3 Yrotation Xrotation Zrotation
         End Site
         {
          OFFSET 0.000000 -17.918900 0.000000
         }
        }
       }
      }
     }
     JOINT LeftCollar
     {
      OFFSET 2.920100 9.518800 0.000000
      CHANNELS 3 Yrotation Xrotation Zrotation
      JOINT LeftShoulder
      {
       OFFSET 13.664500 0.000000 0.000000
       CHANNELS 3 Yrotation Xrotation Zrotation
       JOINT LeftElbow
       {
        OFFSET 0.000000 -29.999200 0.000000
        CHANNELS 3 Yrotation Xrotation Zrotation
        JOINT LeftWrist
        {
         OFFSET 0.000000 -24.253600 0.000000
         CHANNELS 3 Yrotation Xrotation Zrotation
         End Site
         {
          OFFSET 0.000000 -17.918900 0.000000
         }
        }
       }
      }
     }
    }
   }
  }
 }
 JOINT RightHip
 {
  OFFSET -7.797300 0.005300 0.000500
  CHANNELS 3 Yrotation Xrotation Zrotation
  JOINT RightKnee
  {
   OFFSET 0.000000 -40.663400 -0.000500
   CHANNELS 3 Yrotation Xrotation Zrotation
   JOINT RightAnkle
   {
    OFFSET 0.000000 -39.523700 -0.000900
    CHANNELS 3 Yrotation Xrotation Zrotation
    JOINT RightToe
    {
     OFFSET 0.000000 -6.418000 14.485300
     CHANNELS 3 Yrotation Xrotation Zrotation
     End Site
     {
      OFFSET 0.000000 -1.465200 6.326400
     }
    }
   }
  }
 }
 JOINT LeftHip
 {
  OFFSET 7.797300 0.005300 0.000500
  CHANNELS 3 Yrotation Xrotation Zrotation
  JOINT LeftKnee
  {
   OFFSET 0.000000 -40.663400 -0.000500
   CHANNELS 3 Yrotation Xrotation Zrotation
   JOINT LeftAnkle
   {
    OFFSET 0.000000 -39.523700 -0.000900
    CHANNELS 3 Yrotation Xrotation Zrotation
    JOINT LeftToe
    {
     OFFSET 0.000000 -6.418000 14.485300
     CHANNELS 3 Yrotation Xrotation Zrotation
     End Site
     {
      OFFSET 0.000000 -1.465200 6.326400
     }
    }
   }
  }
 }
}
MOTION
Frames: 12
Frame Time: 0.008333
-23.081536 126.417488 59.415337 -173.839305 -27.915004 -0.984785 -1.879312 18.850637 -0.097371 -0.212818 2.178406 0.013598 -0.354133 3.626116 0.027335 -1.614393 16.367303 -0.047668 1.272255 18.095444 0.871767 1.140068 -6.671098 0.631237 -11.247043 -3.978166 0.456886 -30.848697 -15.903182 -7.490667 -104.281452 -17.444977 78.070472 -30.894459 -5.920538 -7.044156 -1.391388 -2.423283 3.716366 32.076055 -15.516099 2.553428 83.141579 -26.615236 -64.919358 32.192456 -21.655613 -2.318091 -6.581557 -59.312628 1.446834 -40.157312 66.849614 -38.421640 23.787737 38.223807 13.547454 0.008706 -0.009929 0.003857 -12.590471 -49.440100 -5.949967 16.587978 70.766581 7.391101 0.541550 8.228148 5.443541 0.000317 -0.005013 0.000140
-23.081072 126.414392 59.415515 -173.866599 -27.865965 -0.958458 -1.862323 18.818578 -0.104981 -0.212035 2.179859 0.013813 -0.353626 3.627714 0.028159 -1.611425 16.369621 -0.044055 1.264560 18.072818 0.863199 1.124689 -6.726407 0.614589 -11.218683 -3.984093 0.460586 -30.798795 -15.895739 -7.477749 -104.313925 -17.446323 78.076970 -30.890714 -5.936623 -7.086354 -1.397984 -2.413008 3.689309 32.011912 -15.517060 2.522708 83.158593 -26.644792 -64.933446 32.177249 -21.655729 -2.261578 -6.552684 -59.362066 1.452438 -40.103221 66.861330 -38.375854 23.688463 38.271176 13.547611 -0.003852 -0.006211 -0.001707 -12.565045 -49.478655 -5.940853 16.598808 70.756647 7.390287 0.522996 8.222233 5.449509 0.001756 -0.000390 0.000778
-23.080033 126.414512 59.409389 -173.866748 -27.858638 -0.953270 -1.866738 18.828481 -0.105040 -0.213598 2.198781 0.020429 -0.352402 3.630347 0.029288 -1.608944 16.352632 -0.047595 1.254135 18.049665 0.853991 1.115484 -6.790760 0.592859 -11.211510 -4.001271 0.458970 -30.734956 -15.879053 -7.460878 -104.375806 -17.469597 78.094439 -30.891475 -5.925188 -7.160862 -1.398953 -2.402874 3.661118 31.949848 -15.523752 2.488165 83.167062 -26.699622 -64.942745 32.158950 -21.660597 -2.199637 -6.548560 -59.369137 1.463294 -40.083517 66.860953 -38.363909 23.685510 38.369743 13.596838 -0.008255 0.004454 -0.003658 -12.556378 -49.479752 -5.942156 16.637256 70.752495 7.421527 0.509656 8.219373 5.454474 0.000805 -0.001348 0.000356
-23.078174 126.413953 59.404241 -173.873893 -27.843339 -0.950252 -1.865276 18.846311 -0.092518 -0.215273 2.229508 0.035297 -0.351107 3.625987 0.028443 -1.607340 16.333390 -0.052570 1.238725 17.999290 0.831698 1.111758 -6.858692 0.568255 -11.180834 -4.021032 0.461262 -30.702283 -15.888776 -7.442589 -104.387083 -17.465318 78.088035 -30.863838 -5.951762 -7.211325 -1.397893 -2.416286 3.616534 31.915719 -15.546918 2.476782 83.135628 -26.748757 -64.937865 32.135624 -21.671178 -2.135147 -6.555732 -59.376997 1.515964 -40.094453 66.839963 -38.393874 23.686034 38.415647 13.625726 -0.001189 0.003424 -0.000527 -12.539934 -49.486453 -5.937211 16.660031 70.748272 7.441436 0.497885 8.217444 5.460833 0.000794 -0.001280 0.000352
-23.077172 126.410203 59.404965 -173.882717 -27.787337 -0.938762 -1.864361 18.833365 -0.079889 -0.214822 2.214332 0.029598 -0.349573 3.605309 0.018422 -1.606643 16.384400 -0.013838 1.224344 17.920699 0.783879 1.109855 -6.920824 0.548216 -11.152737 -4.063695 0.451896 -30.694982 -15.911354 -7.440162 -104.350320 -17.467932 78.076682 -30.860789 -5.999318 -7.223029 -1.376779 -2.428963 3.529637 31.831898 -15.577156 2.450584 83.139614 -26.847642 -64.948770 32.106929 -21.685492 -2.075076 -6.565119 -59.428766 1.569441 -40.076857 66.805912 -38.403950 23.707754 38.503232 13.693566 0.003245 0.004511 0.001438 -12.513279 -49.534045 -5.937601 16.655239 70.739696 7.438812 0.493423 8.216833 5.470110 0.001169 0.000523 0.000518
-23.075864 126.409375 59.399867 -173.875127 -27.767852 -0.941317 -1.872913 18.828055 -0.074050 -0.216352 2.227398 0.037102 -0.350734 3.605694 0.019370 -1.614865 16.379057 -0.010258 1.223352 17.851618 0.763698 1.113680 -6.954059 0.527383 -11.083879 -4.054781 0.476356 -30.719269 -15.956187 -7.451868 -104.318496 -17.471263 78.063563 -30.829841 -5.999189 -7.287459 -1.360537 -2.432946 3.486933 31.761023 -15.570454 2.425368 83.134522 -26.953249 -64.960747 32.077083 -21.701116 -2.027999 -6.598620 -59.444109 1.625471 -40.108768 66.776538 -38.456473 23.759240 38.597087 13.769176 0.014658 0.014846 0.006496 -12.496307 -49.544939 -5.947852 16.642359 70.732285 7.433175 0.500750 8.218402 5.471140 0.000123 -0.000047 0.000054
-23.075448 126.408685 59.394412 -173.881156 -27.749376 -0.932846 -1.872295 18.837823 -0.066689 -0.215834 2.218669 0.034395 -0.354162 3.611608 0.023496 -1.620628 16.367846 -0.011303 1.223685 17.830291 0.747641 1.117573 -7.020259 0.509113 -11.054217 -4.059867 0.480252 -30.678594 -15.959452 -7.450698 -104.323056 -17.499137 78.059977 -30.802067 -5.973555 -7.329960 -1.349144 -2.432238 3.450240 31.705849 -15.564408 2.411134 83.114411 -27.052749 -64.969054 32.050023 -21.706835 -2.002520 -6.715976 -59.463971 1.754983 -40.116013 66.731908 -38.534577 23.825376 38.668520 13.819953 0.019305 0.000126 0.008554 -12.459012 -49.554198 -5.971836 16.618824 70.722401 7.422788 0.502340 8.221715 5.477321 -0.001360 -0.001111 -0.000602
-23.076469 126.406318 59.392222 -173.881590 -27.708195 -0.916250 -1.878116 18.838432 -0.061296 -0.216651 2.182751 0.016754 -0.357016 3.641781 0.042861 -1.625960 16.335177 -0.029591 1.223708 17.799828 0.745046 1.120899 -7.058605 0.489989 -11.021584 -4.051448 0.501105 -30.650843 -15.964668 -7.455842 -104.243995 -17.525937 78.021094 -30.804127 -6.003995 -7.281203 -1.346112 -2.426647 3.429146 31.653255 -15.549141 2.395228 83.098685 -27.153515 -64.976943 32.026747 -21.696951 -2.001197 -6.834758 -59.513133 1.840511 -40.155000 66.644774 -38.641543 24.056955 38.825848 13.988825 0.010084 -0.012489 0.004467 -12.419347 -49.588753 -6.008531 16.592966 70.709451 7.411738 0.506170 8.227473 5.484394 -0.002696 -0.000902 -0.001194
-23.078822 126.402964 59.392141 -173.860722 -27.652753 -0.899682 -1.905435 18.797443 -0.079591 -0.217303 2.196201 0.024249 -0.358491 3.626318 0.035736 -1.634361 16.343203 -0.021212 1.224635 17.748222 0.728662 1.122410 -7.057933 0.479828 -10.977129 -4.061007 0.516815 -30.596416 -15.952262 -7.462593 -104.272202 -17.548161 78.037026 -30.785274 -5.982567 -7.260654 -1.339080 -2.445185 3.406325 31.604866 -15.521160 2.373808 83.081827 -27.245880 -64.989576 32.004473 -21.678420 -2.017054 -6.961834 -59.582175 1.888656 -40.081087 66.646119 -38.632192 24.225581 38.936609 14.131126 0.009698 -0.002095 0.004297 -12.391133 -49.640986 -6.054632 16.563390 70.696092 7.395005 0.510075 8.235312 5.490002 -0.003088 0.000399 -0.001368
-23.080730 126.400897 59.389798 -173.847689 -27.612776 -0.882566 -1.920496 18.790297 -0.088631 -0.218663 2.194977 0.024476 -0.360205 3.659745 0.049160 -1.648743 16.302961 -0.033771 1.229182 17.716559 0.714978 1.128802 -7.115449 0.460060 -10.957830 -4.084550 0.518030 -30.595572 -15.955358 -7.467347 -104.219090 -17.535490 78.021608 -30.764891 -5.960475 -7.231953 -1.329010 -2.461229 3.375515 31.575465 -15.522313 2.371161 83.034265 -27.305626 -64.996726 31.981299 -21.654539 -2.043384 -7.096289 -59.636797 1.936096 -39.990583 66.657811 -38.606598 24.361918 39.031592 14.244406 0.000194 0.001570 0.000086 -12.357522 -49.677055 -6.096617 16.528502 70.685641 7.367838 0.511797 8.242199 5.498855 -0.002741 0.000276 -0.001215
-23.081331 126.400287 59.384860 -173.849032 -27.591032 -0.867008 -1.923080 18.802517 -0.089441 -0.218656 2.213050 0.029731 -0.360827 3.644173 0.042343 -1.658430 16.300066 -0.030053 1.231133 17.681411 0.697986 1.137042 -7.158810 0.443587 -10.941424 -4.117497 0.517286 -30.553758 -15.936195 -7.461707 -104.215279 -17.535990 78.026890 -30.753944 -5.975929 -7.198339 -1.317378 -2.486008 3.348798 31.547989 -15.518482 2.363161 82.990658 -27.353770 -65.013787 31.957865 -21.620232 -2.078368 -7.222927 -59.672742 1.984101 -40.031840 66.604111 -38.698083 24.600242 39.154268 14.371633 -0.014614 -0.007629 -0.006474 -12.318942 -49.692892 -6.126458 16.486088 70.678721 7.326538 0.514669 8.247372 5.510008 -0.003203 -0.001229 -0.001419
-23.081054 126.399819 59.379887 -173.851029 -27.571278 -0.855185 -1.923006 18.817490 -0.089904 -0.219996 2.195969 0.025196 -0.358273 3.664907 0.048890 -1.661565 16.301282 -0.027936 1.228304 17.642341 0.684344 1.135939 -7.169774 0.440700 -10.919502 -4.152298 0.518300 -30.479793 -15.885755 -7.436366 -104.272819 -17.562119 78.066628 -30.750184 -5.991577 -7.165279 -1.314507 -2.517759 3.330964 31.505615 -15.501686 2.343647 82.972997 -27.407733 -65.042344 31.935367 -21.578243 -2.117327 -7.335680 -59.705980 2.023496 -40.009889 66.589177 -38.718519 24.772807 39.241724 14.459507 -0.022813 -0.014405 -0.010106 -12.291978 -49.707375 -6.143310 16.450788 70.674078 7.284453 0.517636 8.251116 5.522135 -0.005436 -0.002803 -0.002408
